<svg xmlns="http://www.w3.org/2000/svg" width="24" height="24" viewBox="0 0 24 24"><g fill="none" stroke-linecap="round" stroke-linejoin="round" stroke-width="2"><path d="M0 0h24v24H0z"/><path fill="currentColor" d="M18 3a3 3 0 0 1 2.995 2.824L21 6v12a3 3 0 0 1-2.824 2.995L18 21H6a3 3 0 0 1-2.995-2.824L3 18V6a3 3 0 0 1 2.824-2.995L6 3h12zm1 6H5v9a1 1 0 0 0 .883.993L6 19h12a1 1 0 0 0 .993-.883L19 18V9zm-6.387 3.21l.094.083l2 2a1 1 0 0 1-1.32 1.497l-.094-.083L12 14.415l-1.293 1.292a1 1 0 0 1-1.32.083l-.094-.083a1 1 0 0 1-.083-1.32l.083-.094l2-2a1 1 0 0 1 1.32-.083z"/></g></svg>