<svg xmlns="http://www.w3.org/2000/svg" viewBox="0 0 50 50" id="website-builder"><path fill="#E7E3E6" d="M46.894 5.313H3.106A2.106 2.106 0 0 0 1 7.418V34.69c0 1.163.943 2.106 2.106 2.106h43.788A2.106 2.106 0 0 0 49 34.69V7.42a2.106 2.106 0 0 0-2.106-2.106z"></path><path fill="#656766" d="M3.662 7.835h42.677v23.749H3.662z"></path><path fill="#806292" d="M24.999 7.835h21.339v11.874H24.999z"></path><path fill="#4E4C4D" d="M24.999 19.709h21.339v11.874H24.999z"></path><path fill="#656766" d="M3.662 7.835h21.339v11.874H3.662zM3.662 19.709h21.339v11.874H3.662z"></path><path fill="#FFF" d="m39.746 13.517-1.223-1.223a.36.36 0 1 0-.51.51l.969.968-.968.968a.36.36 0 1 0 .51.51l1.222-1.224a.36.36 0 0 0 0-.51zm-6.183-1.223a.36.36 0 0 0-.51 0l-1.223 1.223a.36.36 0 0 0 0 .51l1.224 1.222a.36.36 0 0 0 .51 0 .36.36 0 0 0 0-.51l-.97-.967.97-.968a.36.36 0 0 0 0-.51zm3.581-1.166a.362.362 0 0 0-.486.156l-2.381 4.646a.361.361 0 0 0 .642.33l2.382-4.646a.361.361 0 0 0-.157-.486z"></path><path fill="#85BD57" d="M36.62 22.4h-6.439a.36.36 0 1 1 0-.721h6.44a.36.36 0 1 1 0 .72z"></path><path fill="#E7E3E6" d="M41.395 22.4h-2.887a.36.36 0 1 1 0-.721h2.887a.36.36 0 1 1 0 .72zm-8.246 1.803h-2.968a.36.36 0 1 1 0-.72h2.968a.36.36 0 1 1 0 .72z"></path><path fill="#53B1E2" d="M41.395 24.203h-6.359a.36.36 0 1 1 0-.72h6.36a.36.36 0 1 1 0 .72z"></path><path fill="#BA8C5C" d="M31.262 26.007h-1.08a.36.36 0 1 1 0-.721h1.08a.36.36 0 1 1 0 .721z"></path><path fill="#E7E3E6" d="M41.395 26.007H33.15a.36.36 0 1 1 0-.721h8.246a.36.36 0 1 1 0 .721z"></path><path fill="#FFC966" d="M36.328 27.81h-6.147a.36.36 0 1 1 0-.72h6.147a.36.36 0 1 1 0 .72z"></path><path fill="#9A7CA8" d="M41.395 27.81h-3.18a.36.36 0 1 1 0-.72h3.18a.36.36 0 1 1 0 .72z"></path><path fill="#E7E3E6" d="M33.401 29.614h-3.22a.36.36 0 1 1 0-.721h3.22a.36.36 0 1 1 0 .72zm7.994 0H35.29a.36.36 0 1 1 0-.721h6.106a.36.36 0 1 1 0 .72z"></path><path fill="#4E4C4D" d="M7.387 9.4H5.812c-.67 0-1.213.543-1.213 1.213v18.192c0 .67.543 1.213 1.213 1.213h1.575c.67 0 1.213-.543 1.213-1.213V10.613c0-.67-.543-1.213-1.213-1.213z"></path><path fill="#D2D2D2" d="M7.25 10.28H5.949a.553.553 0 0 0-.553.552v1.301c0 .305.247.553.553.553h1.3a.553.553 0 0 0 .553-.553v-1.301a.553.553 0 0 0-.552-.553zm0 3.29H5.949a.553.553 0 0 0-.553.553v1.3c0 .306.247.553.553.553h1.3a.553.553 0 0 0 .553-.552v-1.301a.553.553 0 0 0-.552-.553zm0 3.29H5.949a.553.553 0 0 0-.553.553v1.301c0 .306.247.553.553.553h1.3a.553.553 0 0 0 .553-.553v-1.3a.553.553 0 0 0-.552-.553zm0 3.291H5.949a.553.553 0 0 0-.553.553v1.301c0 .305.247.553.553.553h1.3a.553.553 0 0 0 .553-.553v-1.301a.553.553 0 0 0-.552-.553zm0 3.29H5.949a.553.553 0 0 0-.553.553v1.302c0 .305.247.552.553.552h1.3a.553.553 0 0 0 .553-.552v-1.302a.553.553 0 0 0-.552-.552zm0 3.292H5.949a.553.553 0 0 0-.553.552v1.301c0 .306.247.553.553.553h1.3a.553.553 0 0 0 .553-.553v-1.301a.553.553 0 0 0-.552-.552z"></path><path fill="#EC6E62" d="m19.839 28.35 1.537-1.538a.437.437 0 0 0 0-.619l-1.755-1.755 1.584-.656a.54.54 0 0 0-.085-1.024l-6.11-1.416a.54.54 0 0 0-.648.648l1.417 6.113a.54.54 0 0 0 1.024.085l.662-1.594 1.755 1.756c.17.17.448.17.619 0z"></path><path fill="#D2D2D2" d="M16.024 36.795h17.952v4.339H16.024z"></path><path fill="#E7E3E6" d="M35.048 41.134H14.952a1.777 1.777 0 1 0 0 3.554h20.096a1.777 1.777 0 1 0 0-3.554z"></path></svg>